<svg width="1512" height="285" viewBox="0 0 1512 285" fill="none" xmlns="http://www.w3.org/2000/svg">
<path d="M951 57.3531C773.771 30.0835 657.295 -3.92773 561 57.3531V285H756H951V57.3531Z" fill="#EAF4F4" fill-opacity="0.9"/>
<path d="M947.991 58.2374C910.559 12.3463 872.034 4.0574 764.105 28.2472L947.991 58.2374Z" fill="#E4EEEE" fill-opacity="0.7"/>
<path d="M950 76H561V53.0603C702.986 -5.97586 787.809 -8.05532 950 53.0603V76Z" fill="#E5F2F2" fill-opacity="0.55"/>
<path d="M951 57.3531C1128.23 30.0835 1244.71 -3.92773 1341 57.3531V285H1146H951V57.3531Z" fill="#EAF4F4" fill-opacity="0.9"/>
<path d="M954.009 58.2374C991.441 12.3463 1029.97 4.0574 1137.89 28.2472L954.009 58.2374Z" fill="#E4EEEE" fill-opacity="0.7"/>
<path d="M1341 0C1231.6 0.462003 1160.68 18.3612 1030 58H1341V0Z" fill="#E7EFEF" fill-opacity="0.7"/>
<path d="M1731 57.3531C1553.77 30.0835 1437.29 -3.92773 1341 57.3531V285H1536H1731V57.3531Z" fill="#EAF4F4" fill-opacity="0.9"/>
<path d="M1341 0C1450.4 0.462003 1521.32 18.3612 1652 58H1341V0Z" fill="#E7EFEF" fill-opacity="0.7"/>
<path d="M1728 76H1339V53.0603C1480.99 -5.97586 1565.81 -8.05532 1728 53.0603V76Z" fill="#E5F2F2" fill-opacity="0.55"/>
<path d="M171 57.3531C-6.229 30.0835 -122.705 -3.92773 -219 57.3531V285H-24H171V57.3531Z" fill="#EAF4F4" fill-opacity="0.9"/>
<path d="M167.991 58.2374C130.559 12.3463 92.0344 4.0574 -15.895 28.2472L167.991 58.2374Z" fill="#E4EEEE" fill-opacity="0.7"/>
<path d="M-219 0C-109.596 0.462003 -38.6791 18.3612 92 58H-219V0Z" fill="#E7EFEF" fill-opacity="0.7"/>
<path d="M172 76H-217V53.0603C-75.0137 -5.97586 9.80867 -8.05532 172 53.0603V76Z" fill="#E5F2F2" fill-opacity="0.55"/>
<path d="M171 57.3531C348.229 30.0835 464.705 -3.92773 561 57.3531V285H366H171V57.3531Z" fill="#EAF4F4" fill-opacity="0.9"/>
<path d="M174.009 58.2374C211.441 12.3463 249.966 4.0574 357.895 28.2472L174.009 58.2374Z" fill="#E4EEEE" fill-opacity="0.7"/>
<path d="M172 76H561V53.0603C419.014 -5.97586 334.191 -8.05532 172 53.0603V76Z" fill="#E5F2F2" fill-opacity="0.55"/>
</svg>
