<svg width="32" height="32" viewBox="0 0 32 32" fill="none" xmlns="http://www.w3.org/2000/svg">
<path d="M21.25 30H6.625C4.78125 30 3.1925 29.5106 2.02938 28.585C0.701875 27.5275 0 25.9594 0 24.05C0 22.3837 0.63 20.9375 1.82125 19.8681C2.77375 19.0131 4.08187 18.4175 5.50875 18.1906C5.5125 18.1906 5.51375 18.1906 5.51438 18.1875C5.91688 15.75 7.00375 13.6819 8.65875 12.2075C10.2688 10.7795 12.3479 9.99378 14.5 10C16.3894 10 18.155 10.5869 19.6069 11.6981C20.7414 12.5775 21.6462 13.7186 22.2437 15.0238C22.3084 15.1655 22.4054 15.2902 22.5268 15.3879C22.6482 15.4855 22.7908 15.5535 22.9431 15.5863C24.5681 15.9369 25.9681 16.6669 27.0163 17.7113C28.3125 19.0069 29 20.7319 29 22.7C29 24.7531 28.1794 26.6294 26.6875 27.9825C25.2569 29.2838 23.325 30 21.25 30ZM24.2431 13.855C24.9994 14.0793 25.7281 14.3877 26.4156 14.7744C26.4488 14.793 26.4858 14.8038 26.5237 14.806C26.5617 14.8082 26.5997 14.8017 26.6348 14.787C26.6698 14.7723 26.7011 14.7498 26.7262 14.7212C26.7512 14.6925 26.7694 14.6586 26.7794 14.6219C26.93 14.079 27.0043 13.5178 27 12.9544C26.9756 9.6775 24.2825 7.00313 21.0056 7C19.7736 6.99688 18.5708 7.37525 17.5625 8.08313H17.5588C17.5264 8.10606 17.5011 8.13765 17.4859 8.17428C17.4706 8.2109 17.466 8.25107 17.4725 8.2902C17.4791 8.32933 17.4965 8.36584 17.5228 8.39553C17.5491 8.42523 17.5832 8.44692 17.6213 8.45813C18.7794 8.81255 19.8649 9.37136 20.8263 10.1081C21.9812 11.0008 22.9445 12.117 23.6588 13.39C23.7862 13.6146 23.9956 13.7813 24.2431 13.855ZM31 14H29C28.7348 14 28.4804 13.8946 28.2929 13.7071C28.1054 13.5196 28 13.2652 28 13C28 12.7348 28.1054 12.4804 28.2929 12.2929C28.4804 12.1054 28.7348 12 29 12H31C31.2652 12 31.5196 12.1054 31.7071 12.2929C31.8946 12.4804 32 12.7348 32 13C32 13.2652 31.8946 13.5196 31.7071 13.7071C31.5196 13.8946 31.2652 14 31 14ZM21 6C20.7348 6 20.4804 5.89464 20.2929 5.70711C20.1054 5.51957 20 5.26522 20 5V3C20 2.73478 20.1054 2.48043 20.2929 2.29289C20.4804 2.10536 20.7348 2 21 2C21.2652 2 21.5196 2.10536 21.7071 2.29289C21.8946 2.48043 22 2.73478 22 3V5C22 5.26522 21.8946 5.51957 21.7071 5.70711C21.5196 5.89464 21.2652 6 21 6ZM15.3431 8.34313C15.2118 8.34334 15.0817 8.31755 14.9604 8.26724C14.8391 8.21693 14.7289 8.1431 14.6362 8.05L13.2219 6.63625C13.0343 6.44869 12.9289 6.19431 12.9289 5.92906C12.9289 5.66382 13.0343 5.40943 13.2219 5.22188C13.4094 5.03432 13.6638 4.92895 13.9291 4.92895C14.1943 4.92895 14.4487 5.03432 14.6362 5.22188L16.05 6.63625C16.1898 6.7761 16.2849 6.95424 16.3235 7.14816C16.362 7.34208 16.3422 7.54308 16.2666 7.72575C16.1909 7.90841 16.0628 8.06456 15.8985 8.17445C15.7341 8.28433 15.5408 8.34303 15.3431 8.34313ZM26.6569 8.34313C26.4592 8.34303 26.2659 8.28433 26.1015 8.17445C25.9372 8.06456 25.8091 7.90841 25.7334 7.72575C25.6578 7.54308 25.638 7.34208 25.6765 7.14816C25.7151 6.95424 25.8102 6.7761 25.95 6.63625L27.3638 5.22188C27.5513 5.03432 27.8057 4.92895 28.0709 4.92895C28.3362 4.92895 28.5906 5.03432 28.7781 5.22188C28.9657 5.40943 29.0711 5.66382 29.0711 5.92906C29.0711 6.19431 28.9657 6.44869 28.7781 6.63625L27.3638 8.05C27.2711 8.1431 27.1609 8.21693 27.0396 8.26724C26.9183 8.31755 26.7882 8.34334 26.6569 8.34313Z" fill="#474747"/>
</svg>
