<svg width="1311" height="238" viewBox="0 0 1311 238" fill="none" xmlns="http://www.w3.org/2000/svg">
<line x1="714.5" y1="175" x2="714.5" y2="218" stroke="white"/>
<line x1="803.5" y1="134" x2="803.5" y2="168" stroke="white"/>
<line x1="765.5" y1="166" x2="765.5" y2="184" stroke="white"/>
<line x1="735.5" y1="173" x2="735.5" y2="185" stroke="white"/>
<line x1="876.5" y1="92" x2="876.5" y2="104" stroke="white"/>
<line x1="765.5" y1="80" x2="765.5" y2="92" stroke="white"/>
<line x1="816.5" y1="60" x2="816.5" y2="72" stroke="white"/>
<line x1="840.5" y1="211" x2="840.5" y2="223" stroke="white"/>
<line x1="777.5" y1="197" x2="777.5" y2="209" stroke="white"/>
<line x1="794.5" y1="190" x2="794.5" y2="229" stroke="white"/>
<line x1="702.5" y1="78" x2="702.5" y2="106" stroke="white"/>
<line x1="670.5" y1="98" x2="670.5" y2="126" stroke="white"/>
<line x1="824.5" y1="180" x2="824.5" y2="208" stroke="white"/>
<line x1="739.5" y1="209" x2="739.5" y2="238" stroke="white"/>
<line x1="739.5" y1="114" x2="739.5" y2="132" stroke="white"/>
<line x1="780.5" y1="30" x2="780.5" y2="48" stroke="white"/>
<line x1="714.5" y1="129" x2="714.5" y2="155" stroke="white"/>
<line x1="849.5" y1="162" x2="849.5" y2="188" stroke="white"/>
<line x1="745.5" y1="48" x2="745.5" y2="74" stroke="white"/>
<line x1="771.5" y1="132" x2="771.5" y2="155" stroke="white"/>
<line x1="657.5" y1="179" x2="657.5" y2="206" stroke="white"/>
<line x1="828.5" y1="106" x2="828.5" y2="133" stroke="white"/>
<line x1="849.5" y1="66" x2="849.5" y2="85" stroke="white"/>
<line x1="799.5" y1="78" x2="799.5" y2="105" stroke="white"/>
<line x1="683.5" y1="143" x2="683.5" y2="179" stroke="white"/>
<line x1="683.5" y1="42" x2="683.5" y2="78" stroke="white"/>
<line x1="859.5" y1="105" x2="859.5" y2="141" stroke="white"/>
<line x1="495.5" y1="145" x2="495.5" y2="188" stroke="white"/>
<line x1="584.5" y1="104" x2="584.5" y2="138" stroke="white"/>
<line x1="546.5" y1="136" x2="546.5" y2="154" stroke="white"/>
<line x1="516.5" y1="143" x2="516.5" y2="155" stroke="white"/>
<line x1="657.5" y1="62" x2="657.5" y2="74" stroke="white"/>
<line x1="546.5" y1="50" x2="546.5" y2="62" stroke="white"/>
<line x1="597.5" y1="30" x2="597.5" y2="42" stroke="white"/>
<line x1="621.5" y1="181" x2="621.5" y2="193" stroke="white"/>
<line x1="558.5" y1="167" x2="558.5" y2="179" stroke="white"/>
<line x1="575.5" y1="160" x2="575.5" y2="199" stroke="white"/>
<line x1="483.5" y1="48" x2="483.5" y2="76" stroke="white"/>
<line x1="451.5" y1="68" x2="451.5" y2="96" stroke="white"/>
<line x1="605.5" y1="150" x2="605.5" y2="178" stroke="white"/>
<line x1="520.5" y1="179" x2="520.5" y2="208" stroke="white"/>
<line x1="520.5" y1="84" x2="520.5" y2="102" stroke="white"/>
<line x1="561.5" y1="2.18557e-08" x2="561.5" y2="18" stroke="white"/>
<line x1="495.5" y1="99" x2="495.5" y2="125" stroke="white"/>
<line x1="630.5" y1="132" x2="630.5" y2="158" stroke="white"/>
<line x1="526.5" y1="18" x2="526.5" y2="44" stroke="white"/>
<line x1="552.5" y1="102" x2="552.5" y2="125" stroke="white"/>
<line x1="438.5" y1="149" x2="438.5" y2="176" stroke="white"/>
<line x1="609.5" y1="76" x2="609.5" y2="103" stroke="white"/>
<line x1="630.5" y1="36" x2="630.5" y2="55" stroke="white"/>
<line x1="580.5" y1="48" x2="580.5" y2="75" stroke="white"/>
<line x1="464.5" y1="113" x2="464.5" y2="149" stroke="white"/>
<line x1="464.5" y1="12" x2="464.5" y2="48" stroke="white"/>
<line x1="640.5" y1="75" x2="640.5" y2="111" stroke="white"/>
<line x1="276.5" y1="175" x2="276.5" y2="218" stroke="white"/>
<line x1="365.5" y1="134" x2="365.5" y2="168" stroke="white"/>
<line x1="327.5" y1="166" x2="327.5" y2="184" stroke="white"/>
<line x1="297.5" y1="173" x2="297.5" y2="185" stroke="white"/>
<line x1="438.5" y1="92" x2="438.5" y2="104" stroke="white"/>
<line x1="327.5" y1="80" x2="327.5" y2="92" stroke="white"/>
<line x1="378.5" y1="60" x2="378.5" y2="72" stroke="white"/>
<line x1="402.5" y1="211" x2="402.5" y2="223" stroke="white"/>
<line x1="339.5" y1="197" x2="339.5" y2="209" stroke="white"/>
<line x1="356.5" y1="190" x2="356.5" y2="229" stroke="white"/>
<line x1="264.5" y1="78" x2="264.5" y2="106" stroke="white"/>
<line x1="232.5" y1="98" x2="232.5" y2="126" stroke="white"/>
<line x1="386.5" y1="180" x2="386.5" y2="208" stroke="white"/>
<line x1="301.5" y1="209" x2="301.5" y2="238" stroke="white"/>
<line x1="301.5" y1="114" x2="301.5" y2="132" stroke="white"/>
<line x1="342.5" y1="30" x2="342.5" y2="48" stroke="white"/>
<line x1="276.5" y1="129" x2="276.5" y2="155" stroke="white"/>
<line x1="411.5" y1="162" x2="411.5" y2="188" stroke="white"/>
<line x1="307.5" y1="48" x2="307.5" y2="74" stroke="white"/>
<line x1="333.5" y1="132" x2="333.5" y2="155" stroke="white"/>
<line x1="219.5" y1="179" x2="219.5" y2="206" stroke="white"/>
<line x1="390.5" y1="106" x2="390.5" y2="133" stroke="white"/>
<line x1="411.5" y1="66" x2="411.5" y2="85" stroke="white"/>
<line x1="361.5" y1="78" x2="361.5" y2="105" stroke="white"/>
<line x1="245.5" y1="143" x2="245.5" y2="179" stroke="white"/>
<line x1="245.5" y1="42" x2="245.5" y2="78" stroke="white"/>
<line x1="421.5" y1="105" x2="421.5" y2="141" stroke="white"/>
<line x1="57.5" y1="145" x2="57.5" y2="188" stroke="white"/>
<line x1="146.5" y1="104" x2="146.5" y2="138" stroke="white"/>
<line x1="108.5" y1="136" x2="108.5" y2="154" stroke="white"/>
<line x1="78.5" y1="143" x2="78.5" y2="155" stroke="white"/>
<line x1="219.5" y1="62" x2="219.5" y2="74" stroke="white"/>
<line x1="108.5" y1="50" x2="108.5" y2="62" stroke="white"/>
<line x1="159.5" y1="30" x2="159.5" y2="42" stroke="white"/>
<line x1="183.5" y1="181" x2="183.5" y2="193" stroke="white"/>
<line x1="120.5" y1="167" x2="120.5" y2="179" stroke="white"/>
<line x1="137.5" y1="160" x2="137.5" y2="199" stroke="white"/>
<line x1="45.5" y1="48" x2="45.5" y2="76" stroke="white"/>
<line x1="13.5" y1="68" x2="13.5" y2="96" stroke="white"/>
<line x1="167.5" y1="150" x2="167.5" y2="178" stroke="white"/>
<line x1="82.5" y1="179" x2="82.5" y2="208" stroke="white"/>
<line x1="82.5" y1="84" x2="82.5" y2="102" stroke="white"/>
<line x1="123.5" y1="2.18557e-08" x2="123.5" y2="18" stroke="white"/>
<line x1="57.5" y1="99" x2="57.5" y2="125" stroke="white"/>
<line x1="192.5" y1="132" x2="192.5" y2="158" stroke="white"/>
<line x1="88.5" y1="18" x2="88.5" y2="44" stroke="white"/>
<line x1="114.5" y1="102" x2="114.5" y2="125" stroke="white"/>
<line x1="0.5" y1="149" x2="0.499999" y2="176" stroke="white"/>
<line x1="171.5" y1="76" x2="171.5" y2="103" stroke="white"/>
<line x1="192.5" y1="36" x2="192.5" y2="55" stroke="white"/>
<line x1="142.5" y1="48" x2="142.5" y2="75" stroke="white"/>
<line x1="26.5" y1="113" x2="26.5" y2="149" stroke="white"/>
<line x1="26.5" y1="12" x2="26.5" y2="48" stroke="white"/>
<line x1="202.5" y1="75" x2="202.5" y2="111" stroke="white"/>
<line x1="1148.5" y1="175" x2="1148.5" y2="218" stroke="white"/>
<line x1="1237.5" y1="134" x2="1237.5" y2="168" stroke="white"/>
<line x1="1199.5" y1="166" x2="1199.5" y2="184" stroke="white"/>
<line x1="1169.5" y1="173" x2="1169.5" y2="185" stroke="white"/>
<line x1="1310.5" y1="92" x2="1310.5" y2="104" stroke="white"/>
<line x1="1199.5" y1="80" x2="1199.5" y2="92" stroke="white"/>
<line x1="1250.5" y1="60" x2="1250.5" y2="72" stroke="white"/>
<line x1="1274.5" y1="211" x2="1274.5" y2="223" stroke="white"/>
<line x1="1211.5" y1="197" x2="1211.5" y2="209" stroke="white"/>
<line x1="1228.5" y1="190" x2="1228.5" y2="229" stroke="white"/>
<line x1="1136.5" y1="78" x2="1136.5" y2="106" stroke="white"/>
<line x1="1104.5" y1="98" x2="1104.5" y2="126" stroke="white"/>
<line x1="1258.5" y1="180" x2="1258.5" y2="208" stroke="white"/>
<line x1="1173.5" y1="209" x2="1173.5" y2="238" stroke="white"/>
<line x1="1173.5" y1="114" x2="1173.5" y2="132" stroke="white"/>
<line x1="1214.5" y1="30" x2="1214.5" y2="48" stroke="white"/>
<line x1="1148.5" y1="129" x2="1148.5" y2="155" stroke="white"/>
<line x1="1283.5" y1="162" x2="1283.5" y2="188" stroke="white"/>
<line x1="1179.5" y1="48" x2="1179.5" y2="74" stroke="white"/>
<line x1="1205.5" y1="132" x2="1205.5" y2="155" stroke="white"/>
<line x1="1091.5" y1="179" x2="1091.5" y2="206" stroke="white"/>
<line x1="1262.5" y1="106" x2="1262.5" y2="133" stroke="white"/>
<line x1="1283.5" y1="66" x2="1283.5" y2="85" stroke="white"/>
<line x1="1233.5" y1="78" x2="1233.5" y2="105" stroke="white"/>
<line x1="1117.5" y1="143" x2="1117.5" y2="179" stroke="white"/>
<line x1="1117.5" y1="42" x2="1117.5" y2="78" stroke="white"/>
<line x1="1293.5" y1="105" x2="1293.5" y2="141" stroke="white"/>
<line x1="929.5" y1="145" x2="929.5" y2="188" stroke="white"/>
<line x1="1018.5" y1="104" x2="1018.5" y2="138" stroke="white"/>
<line x1="980.5" y1="136" x2="980.5" y2="154" stroke="white"/>
<line x1="950.5" y1="143" x2="950.5" y2="155" stroke="white"/>
<line x1="1091.5" y1="62" x2="1091.5" y2="74" stroke="white"/>
<line x1="980.5" y1="50" x2="980.5" y2="62" stroke="white"/>
<line x1="1031.5" y1="30" x2="1031.5" y2="42" stroke="white"/>
<line x1="1055.5" y1="181" x2="1055.5" y2="193" stroke="white"/>
<line x1="992.5" y1="167" x2="992.5" y2="179" stroke="white"/>
<line x1="1009.5" y1="160" x2="1009.5" y2="199" stroke="white"/>
<line x1="917.5" y1="48" x2="917.5" y2="76" stroke="white"/>
<line x1="885.5" y1="68" x2="885.5" y2="96" stroke="white"/>
<line x1="1039.5" y1="150" x2="1039.5" y2="178" stroke="white"/>
<line x1="954.5" y1="179" x2="954.5" y2="208" stroke="white"/>
<line x1="954.5" y1="84" x2="954.5" y2="102" stroke="white"/>
<line x1="995.5" y1="2.18557e-08" x2="995.5" y2="18" stroke="white"/>
<line x1="929.5" y1="99" x2="929.5" y2="125" stroke="white"/>
<line x1="1064.5" y1="132" x2="1064.5" y2="158" stroke="white"/>
<line x1="960.5" y1="18" x2="960.5" y2="44" stroke="white"/>
<line x1="986.5" y1="102" x2="986.5" y2="125" stroke="white"/>
<line x1="872.5" y1="149" x2="872.5" y2="176" stroke="white"/>
<line x1="1043.5" y1="76" x2="1043.5" y2="103" stroke="white"/>
<line x1="1064.5" y1="36" x2="1064.5" y2="55" stroke="white"/>
<line x1="1014.5" y1="48" x2="1014.5" y2="75" stroke="white"/>
<line x1="898.5" y1="113" x2="898.5" y2="149" stroke="white"/>
<line x1="898.5" y1="12" x2="898.5" y2="48" stroke="white"/>
<line x1="1074.5" y1="75" x2="1074.5" y2="111" stroke="white"/>
</svg>
